<svg width="516" height="688" viewBox="0 0 516 688" fill="none" xmlns="http://www.w3.org/2000/svg">
<rect x="0.384216" y="332.854" width="331.081" height="428.458" rx="15" transform="rotate(-34.2383 0.384216 332.854)" fill="#96C5CE"/>
<line x1="86.1753" y1="381.795" x2="288.143" y2="244.34" stroke="white"/>
<line x1="114.307" y1="423.13" x2="316.275" y2="285.676" stroke="white"/>
<line x1="142.439" y1="464.466" x2="344.407" y2="327.011" stroke="white"/>
<line x1="170.571" y1="505.801" x2="372.539" y2="368.346" stroke="white"/>
<line x1="198.702" y1="547.136" x2="400.671" y2="409.681" stroke="white"/>
<line x1="226.834" y1="588.471" x2="428.802" y2="451.017" stroke="white"/>
<path d="M77.6665 364.807L95.0136 360.976C99.5952 359.965 102.857 355.904 102.857 351.212L102.857 347.175C102.857 341.529 108.353 337.517 113.73 339.238V339.238C119.107 340.959 124.603 336.947 124.603 331.301L124.603 330.484C124.603 324.466 130.433 320.171 136.18 321.955L140.187 323.198C145.497 324.846 151.132 321.846 152.729 316.521L155.519 307.222C156.788 302.992 160.681 300.095 165.097 300.095L174.51 300.095C179.355 300.095 183.503 296.622 184.354 291.853L184.918 288.695C186.081 282.184 193.132 278.575 199.094 281.44L201.869 282.773C207.577 285.516 214.365 282.329 215.901 276.185L218.072 267.502C219.508 261.759 225.591 258.513 231.161 260.518L232.495 260.999C237.741 262.887 243.518 260.121 245.336 254.85L247.624 248.214C249.363 243.171 254.756 240.381 259.877 241.874L260.897 242.172C266.613 243.839 272.51 240.173 273.545 234.31L274.917 226.536C275.901 220.958 281.763 217.696 287.022 219.799L289.55 220.811C295.186 223.065 301.027 218.046 299.648 212.135V212.135C298.367 206.643 303.373 201.752 308.834 203.161L313.332 204.322C318.632 205.689 323.797 201.688 323.797 196.215L323.797 189.107C323.797 185.305 328.084 183.084 331.19 185.276V185.276C334.296 187.469 338.584 185.247 338.584 181.445L338.584 174.29C338.584 168.963 343.771 165.179 348.844 166.806V166.806C354.253 168.54 359.659 164.142 359.061 158.494L355.037 120.455" stroke="black" stroke-linecap="round"/>
<rect x="381.292" y="91.5249" width="115.479" height="7.26" transform="rotate(-42.6632 381.292 91.5249)" fill="#A0CFD8"/>
<rect x="386.212" y="96.8636" width="115.479" height="7.26172" transform="rotate(-42.6632 386.212 96.8636)" fill="#96C5CE"/>
<rect x="376.372" y="86.1863" width="115.479" height="7.26" transform="rotate(-42.6632 376.372 86.1863)" fill="#B6E5EE"/>
<rect x="461.29" y="7.92786" width="11.1046" height="7.26" transform="rotate(-42.6632 461.29 7.92786)" fill="#1B1B1B"/>
<rect x="466.112" y="13.1609" width="11.1046" height="7.40366" transform="rotate(-42.6632 466.112 13.1609)" fill="#090909"/>
<rect x="471.13" y="18.6051" width="11.1046" height="7.26172" transform="rotate(-42.6632 471.13 18.6051)" fill="black"/>
<path d="M359.027 112.044L376.372 86.1863L381.292 91.5249L359.027 112.044Z" fill="#FFE2B3"/>
<rect x="359.027" y="112.044" width="30.2788" height="7.25999" transform="rotate(-42.6632 359.027 112.044)" fill="#FFD5A6"/>
<path d="M363.948 117.384L386.214 96.8648L391.134 102.203L363.948 117.384Z" fill="#F9CB9C"/>
<path d="M354.755 120.918L359.061 112.018L363.978 117.353L354.755 120.918Z" fill="black"/>
</svg>
