<svg width="385" height="25" viewBox="0 0 385 25" fill="none" xmlns="http://www.w3.org/2000/svg">
<path d="M20.0098 0.759193V24.0319H14.4643V5.25919H5.82798V24.0319H0.282521V0.759193H20.0098ZM45.4927 9.19101H39.8109C39.7352 8.60768 39.5799 8.08116 39.345 7.61147C39.1102 7.14177 38.7996 6.74025 38.4132 6.40692C38.0268 6.07359 37.5685 5.8198 37.0382 5.64556C36.5155 5.46374 35.9359 5.37283 35.2996 5.37283C34.1708 5.37283 33.1973 5.64934 32.3791 6.20238C31.5685 6.75541 30.9435 7.55465 30.5041 8.6001C30.0723 9.64556 29.8564 10.9107 29.8564 12.3956C29.8564 13.941 30.0761 15.2365 30.5155 16.2819C30.9624 17.3198 31.5874 18.1039 32.3905 18.6342C33.2011 19.1569 34.1594 19.4183 35.2655 19.4183C35.8867 19.4183 36.4511 19.3387 36.9587 19.1796C37.4738 19.0206 37.9246 18.7895 38.3109 18.4865C38.7049 18.1759 39.0268 17.8009 39.2768 17.3615C39.5344 16.9145 39.7124 16.4107 39.8109 15.8501L45.4927 15.8842C45.3943 16.9145 45.095 17.9296 44.595 18.9296C44.1026 19.9296 43.4246 20.8425 42.5609 21.6683C41.6973 22.4865 40.6443 23.138 39.4018 23.6228C38.167 24.1077 36.7503 24.3501 35.1518 24.3501C33.0458 24.3501 31.1594 23.888 29.4927 22.9637C27.8337 22.0319 26.5231 20.6759 25.5609 18.8956C24.5988 17.1153 24.1177 14.9486 24.1177 12.3956C24.1177 9.83495 24.6064 7.6645 25.5837 5.88419C26.5609 4.10389 27.8829 2.75162 29.5496 1.82738C31.2162 0.903133 33.0837 0.441011 35.1518 0.441011C36.5609 0.441011 37.864 0.637981 39.0609 1.03192C40.2579 1.41828 41.3109 1.98647 42.22 2.73647C43.1291 3.47889 43.8677 4.39177 44.4359 5.4751C45.0041 6.55844 45.3564 7.79707 45.4927 9.19101ZM48.7115 0.759193H54.3251V14.1683H54.5183L63.6774 0.759193H68.5183V24.0319H62.8933V10.6001H62.7456L53.4729 24.0319H48.7115V0.759193ZM77.7484 0.759193L81.9984 8.11147H82.1802L86.4757 0.759193H92.7712L85.7484 12.3956L92.9984 24.0319H86.5439L82.1802 16.6001H81.9984L77.6348 24.0319H71.2257L78.4416 12.3956L71.4075 0.759193H77.7484ZM116.334 12.3956C116.334 14.9562 115.841 17.1266 114.856 18.9069C113.872 20.6872 112.538 22.0395 110.856 22.9637C109.182 23.888 107.303 24.3501 105.22 24.3501C103.129 24.3501 101.247 23.8842 99.5723 22.9524C97.8981 22.0206 96.5685 20.6683 95.5837 18.8956C94.6064 17.1153 94.1177 14.9486 94.1177 12.3956C94.1177 9.83495 94.6064 7.6645 95.5837 5.88419C96.5685 4.10389 97.8981 2.75162 99.5723 1.82738C101.247 0.903133 103.129 0.441011 105.22 0.441011C107.303 0.441011 109.182 0.903133 110.856 1.82738C112.538 2.75162 113.872 4.10389 114.856 5.88419C115.841 7.6645 116.334 9.83495 116.334 12.3956ZM110.584 12.3956C110.584 10.8804 110.368 9.6001 109.936 8.55465C109.512 7.50919 108.898 6.71753 108.095 6.17965C107.3 5.64177 106.341 5.37283 105.22 5.37283C104.106 5.37283 103.148 5.64177 102.345 6.17965C101.542 6.71753 100.925 7.50919 100.493 8.55465C100.069 9.6001 99.8564 10.8804 99.8564 12.3956C99.8564 13.9107 100.069 15.191 100.493 16.2365C100.925 17.2819 101.542 18.0736 102.345 18.6115C103.148 19.1493 104.106 19.4183 105.22 19.4183C106.341 19.4183 107.3 19.1493 108.095 18.6115C108.898 18.0736 109.512 17.2819 109.936 16.2365C110.368 15.191 110.584 13.9107 110.584 12.3956ZM118.606 24.0319V19.6228L119.243 19.5546C120.061 19.4562 120.728 19.1266 121.243 18.566C121.758 17.9978 122.148 17.0963 122.413 15.8615C122.686 14.619 122.86 12.941 122.936 10.8274L123.311 0.759193H139.64V24.0319H134.197V5.19101H128.504L128.14 12.8956C128.012 15.5546 127.675 17.7024 127.129 19.3387C126.584 20.9675 125.739 22.1569 124.595 22.9069C123.459 23.6569 121.932 24.0319 120.015 24.0319H118.606ZM159.047 0.759193V5.32738H148.774V24.0319H143.149V0.759193H159.047ZM182.709 12.3956C182.709 14.9562 182.216 17.1266 181.231 18.9069C180.247 20.6872 178.913 22.0395 177.231 22.9637C175.557 23.888 173.678 24.3501 171.595 24.3501C169.504 24.3501 167.622 23.8842 165.947 22.9524C164.273 22.0206 162.944 20.6683 161.959 18.8956C160.981 17.1153 160.493 14.9486 160.493 12.3956C160.493 9.83495 160.981 7.6645 161.959 5.88419C162.944 4.10389 164.273 2.75162 165.947 1.82738C167.622 0.903133 169.504 0.441011 171.595 0.441011C173.678 0.441011 175.557 0.903133 177.231 1.82738C178.913 2.75162 180.247 4.10389 181.231 5.88419C182.216 7.6645 182.709 9.83495 182.709 12.3956ZM176.959 12.3956C176.959 10.8804 176.743 9.6001 176.311 8.55465C175.887 7.50919 175.273 6.71753 174.47 6.17965C173.675 5.64177 172.716 5.37283 171.595 5.37283C170.481 5.37283 169.523 5.64177 168.72 6.17965C167.917 6.71753 167.3 7.50919 166.868 8.55465C166.444 9.6001 166.231 10.8804 166.231 12.3956C166.231 13.9107 166.444 15.191 166.868 16.2365C167.3 17.2819 167.917 18.0736 168.72 18.6115C169.523 19.1493 170.481 19.4183 171.595 19.4183C172.716 19.4183 173.675 19.1493 174.47 18.6115C175.273 18.0736 175.887 17.2819 176.311 16.2365C176.743 15.191 176.959 13.9107 176.959 12.3956Z" fill="#FCCABC"/>
<path d="M192.868 24.0319V0.759193H202.572C204.315 0.759193 205.773 1.00541 206.947 1.49783C208.129 1.99025 209.015 2.67965 209.606 3.56601C210.205 4.45238 210.504 5.47889 210.504 6.64556C210.504 7.53192 210.319 8.32359 209.947 9.02056C209.576 9.70995 209.065 10.2819 208.413 10.7365C207.762 11.191 207.008 11.5092 206.152 11.691V11.9183C207.091 11.9637 207.959 12.2175 208.754 12.6796C209.557 13.1418 210.201 13.7857 210.686 14.6115C211.171 15.4296 211.413 16.3993 211.413 17.5206C211.413 18.7706 211.095 19.888 210.459 20.8728C209.822 21.8501 208.902 22.6228 207.697 23.191C206.493 23.7516 205.031 24.0319 203.311 24.0319H192.868ZM198.493 19.4978H201.97C203.19 19.4978 204.087 19.2668 204.663 18.8046C205.247 18.3425 205.538 17.6986 205.538 16.8728C205.538 16.2743 205.398 15.7592 205.118 15.3274C204.837 14.888 204.44 14.5509 203.925 14.316C203.409 14.0736 202.792 13.9524 202.072 13.9524H198.493V19.4978ZM198.493 10.3274H201.606C202.22 10.3274 202.765 10.2251 203.243 10.0206C203.72 9.81601 204.091 9.52056 204.356 9.13419C204.629 8.74783 204.765 8.28192 204.765 7.73647C204.765 6.95616 204.489 6.34253 203.936 5.89556C203.383 5.44859 202.637 5.2251 201.697 5.2251H198.493V10.3274ZM235.209 24.0319L227.89 14.3728H226.618V24.0319H220.993V0.759193H226.618V9.79328H227.515L234.72 0.759193H241.754L232.788 11.7478L242.22 24.0319H235.209ZM249.308 24.0319H243.263L251.115 0.759193H258.604L266.456 24.0319H260.41L254.944 6.62283H254.763L249.308 24.0319ZM248.501 14.8728H261.138V19.1456H248.501V14.8728ZM268.961 24.0319V0.759193H278.575C280.318 0.759193 281.821 1.1001 283.086 1.78192C284.359 2.45616 285.34 3.39934 286.03 4.61147C286.719 5.81601 287.064 7.21753 287.064 8.81601C287.064 10.4221 286.711 11.8274 286.007 13.0319C285.31 14.2289 284.314 15.1569 283.018 15.816C281.723 16.4751 280.185 16.8046 278.405 16.8046H272.473V12.3728H277.359C278.208 12.3728 278.916 12.2251 279.484 11.9296C280.06 11.6342 280.496 11.2213 280.791 10.691C281.086 10.1531 281.234 9.52813 281.234 8.81601C281.234 8.09631 281.086 7.4751 280.791 6.95238C280.496 6.42207 280.06 6.01298 279.484 5.7251C278.908 5.43722 278.2 5.29329 277.359 5.29329H274.586V24.0319H268.961ZM289.836 0.759193H296.802L302.711 15.1683H302.984L308.893 0.759193H315.859V24.0319H310.382V9.73647H310.189L304.598 23.8842H301.098L295.507 9.65692H295.314V24.0319H289.836V0.759193ZM324.402 24.0319H318.356L326.209 0.759193H333.697L341.55 24.0319H335.504L330.038 6.62283H329.856L324.402 24.0319ZM323.595 14.8728H336.231V19.1456H323.595V14.8728ZM344.055 24.0319V0.759193H349.68V10.1001H358.851V0.759193H364.464V24.0319H358.851V14.6796H349.68V24.0319H344.055ZM367.993 24.0319V0.759193H384.22V5.32738H373.618V10.1001H383.39V14.6796H373.618V19.4637H384.22V24.0319H367.993Z" fill="white"/>
</svg>
