<svg width="204" height="205" viewBox="0 0 204 205" fill="none" xmlns="http://www.w3.org/2000/svg">
<g clip-path="url(#clip0_28_16)">
<path d="M187.639 70.6949C193.092 68.6514 199.226 71.4071 200.696 77.0412C206.238 98.2791 204.802 120.844 196.436 141.339C186.737 165.103 168.435 184.336 145.182 195.202C121.928 206.068 95.4333 207.768 70.9821 199.962C46.5309 192.157 25.9211 175.421 13.2642 153.092C0.607315 130.763 -3.16619 104.483 2.69649 79.4944C8.55917 54.5062 23.627 32.6468 44.8941 18.277C66.1612 3.90716 92.0641 -1.91663 117.435 1.96741C139.317 5.31721 159.415 15.6755 174.791 31.3394C178.869 35.4948 178.083 42.1733 173.529 45.8018C168.975 49.4302 162.385 48.62 158.195 44.576C146.212 33.0083 130.877 25.357 114.244 22.8107C94.1181 19.7296 73.5701 24.3494 56.6994 35.7486C39.8288 47.1478 27.8758 64.4883 23.2251 84.3108C18.5744 104.133 21.5679 124.981 31.6082 142.694C41.6486 160.407 57.9979 173.683 77.3943 179.875C96.7908 186.067 117.809 184.718 136.255 176.098C154.701 167.479 169.219 152.222 176.914 133.371C183.273 117.792 184.584 100.704 180.815 84.4808C179.497 78.8092 182.187 72.7385 187.639 70.6949Z" fill="url(#paint0_linear_28_16)"/>
<path d="M66.08 99.9528C66.08 104.597 69.32 108.305 74.036 108.305C74.648 108.305 75.08 108.233 75.332 108.089L69.896 115.793H77.528L83.072 106.973C84.476 104.705 85.376 102.113 85.376 99.7728C85.376 94.5168 81.308 90.5928 75.728 90.5928C70.256 90.5928 66.08 94.5528 66.08 99.9528ZM72.416 99.7008C72.416 97.8648 73.892 96.4608 75.764 96.4608C77.636 96.4608 79.076 97.9008 79.076 99.7368C79.076 101.573 77.636 102.977 75.764 102.977C73.892 102.977 72.416 101.537 72.416 99.7008ZM94.3971 105.713C94.9371 104.849 95.9811 104.165 97.3131 104.165C99.1491 104.165 100.481 105.461 100.481 107.225C100.481 108.989 99.1491 110.393 97.3131 110.393C95.4051 110.393 94.3611 109.133 94.2531 108.017H87.9171C88.0251 113.021 91.6971 116.297 97.4211 116.297C102.785 116.297 106.889 112.301 106.889 106.901C106.889 102.437 103.685 98.7288 98.9691 98.7288C97.4211 98.7288 96.0531 99.1248 94.8651 99.8808L95.3331 96.7128H105.161V91.0968H90.3651L88.5291 104.489L94.3971 105.713ZM121.357 96.8208C121.357 93.4008 118.585 90.7368 115.021 90.7368C111.457 90.7368 108.685 93.4008 108.685 96.8208C108.685 100.241 111.457 102.905 115.021 102.905C118.585 102.905 121.357 100.241 121.357 96.8208ZM117.109 96.8208C117.109 98.0808 116.209 98.9448 115.021 98.9448C113.833 98.9448 112.933 98.0808 112.933 96.8208C112.933 95.5608 113.833 94.6968 115.021 94.6968C116.209 94.6968 117.109 95.5608 117.109 96.8208ZM134.857 91.0608H129.349L110.989 115.793H116.497L134.857 91.0608ZM124.489 110.033C124.489 113.453 127.261 116.117 130.825 116.117C134.389 116.117 137.161 113.453 137.161 110.033C137.161 106.613 134.389 103.949 130.825 103.949C127.261 103.949 124.489 106.613 124.489 110.033ZM128.737 110.033C128.737 108.773 129.637 107.909 130.825 107.909C132.013 107.909 132.913 108.773 132.913 110.033C132.913 111.293 132.013 112.157 130.825 112.157C129.637 112.157 128.737 111.293 128.737 110.033Z" fill="white"/>
</g>
<defs>
<linearGradient id="paint0_linear_28_16" x1="-12.4348" y1="92.0073" x2="228.124" y2="92.8908" gradientUnits="userSpaceOnUse">
<stop stop-color="#FCCABC"/>
<stop offset="1" stop-color="white"/>
</linearGradient>
<clipPath id="clip0_28_16">
<rect width="204" height="204" fill="white" transform="translate(0 0.792755)"/>
</clipPath>
</defs>
</svg>
